<svg width="12" height="10" viewBox="0 0 12 10" fill="none" xmlns="http://www.w3.org/2000/svg">
<path d="M11.416 1.45008C11.37 1.3391 11.3026 1.23827 11.2176 1.15337C11.1327 1.06837 11.0319 1.00095 10.9209 0.95494C10.8099 0.908934 10.6909 0.885254 10.5708 0.885254C10.4507 0.885254 10.3317 0.908934 10.2207 0.95494C10.1098 1.00095 10.0089 1.06837 9.92402 1.15337L4.17152 6.90701L2.07576 4.81011C1.90422 4.63857 1.67157 4.5422 1.42897 4.5422C1.18638 4.5422 0.953727 4.63857 0.782189 4.81011C0.610651 4.98164 0.514282 5.2143 0.514282 5.45689C0.514282 5.69948 0.610651 5.93214 0.782189 6.10368L3.52474 8.84623C3.60964 8.93122 3.71047 8.99865 3.82145 9.04466C3.93243 9.09066 4.05139 9.11434 4.17152 9.11434C4.29166 9.11434 4.41062 9.09066 4.5216 9.04466C4.63258 8.99865 4.73341 8.93122 4.81831 8.84623L11.2176 2.44694C11.3026 2.36204 11.37 2.26121 11.416 2.15023C11.462 2.03925 11.4857 1.92029 11.4857 1.80016C11.4857 1.68002 11.462 1.56106 11.416 1.45008Z" fill="#212121"/>
</svg>
