<svg width="115" height="25" viewBox="0 0 115 25" fill="none" xmlns="http://www.w3.org/2000/svg">
<path d="M22.168 20.096L22.872 20.8C23.704 21.632 23.704 22.976 22.872 23.84C22.456 24.256 21.912 24.448 21.368 24.448C20.824 24.448 20.248 24.256 19.832 23.84L18.968 22.976C17.08 24.16 14.872 24.8 12.568 24.8C9.336 24.8 6.296 23.52 3.992 21.216C1.688 18.944 0.44 15.872 0.44 12.64C0.44 9.376 1.688 6.336 3.992 4.032C4.28 3.744 4.6 3.456 4.92 3.2C5.336 2.848 5.752 2.56 6.2 2.272C6.36 2.176 6.488 2.112 6.648 2.016C7 1.824 7.384 1.632 7.8 1.472C7.96 1.376 8.088 1.344 8.248 1.28C8.472 1.184 8.696 1.12 8.92 1.024C9.272 0.927999 9.656 0.831999 10.008 0.735998C10.168 0.703999 10.296 0.703999 10.456 0.671999C11.16 0.543999 11.864 0.48 12.568 0.48C13.368 0.48 14.136 0.543999 14.904 0.703999C15.928 0.895998 16.92 1.216 17.88 1.696C19.064 2.272 20.184 3.04 21.176 4.032C23.48 6.336 24.728 9.376 24.728 12.64C24.728 15.36 23.832 17.952 22.168 20.096ZM19.096 17.024C21.176 13.952 20.856 9.76 18.136 7.072C16.6 5.536 14.584 4.768 12.568 4.768C10.584 4.768 8.568 5.536 7.032 7.072C5.528 8.544 4.728 10.528 4.728 12.64C4.728 14.72 5.528 16.704 7.032 18.176C9.4 20.576 12.92 21.088 15.8 19.808L12.472 16.448C11.64 15.616 11.64 14.24 12.472 13.408C13.304 12.576 14.68 12.576 15.512 13.408L19.096 17.024ZM46.3423 1.12C47.5263 1.12 48.4863 2.08 48.4863 3.264V15.328C48.4863 20.288 43.9103 24.448 38.5023 24.448C33.0943 24.448 28.5503 20.288 28.5503 15.328V3.264C28.5503 2.08 29.5103 1.12 30.6943 1.12C31.8783 1.12 32.8383 2.08 32.8383 3.264V15.328C32.8383 17.92 35.4623 20.16 38.5023 20.16C41.3823 20.16 44.1983 17.984 44.1983 15.328V3.264C44.1983 2.08 45.1583 1.12 46.3423 1.12ZM67.7443 19.712C68.9283 19.712 69.8883 20.672 69.8883 21.856C69.8883 23.04 68.9283 24 67.7443 24H55.2963C54.1123 24 53.1523 23.04 53.1523 21.856V3.2C53.1523 2.016 54.1123 1.056 55.2963 1.056H67.7443C68.9283 1.056 69.8883 2.016 69.8883 3.2C69.8883 4.384 68.9283 5.344 67.7443 5.344H57.4403V10.4H65.9203C67.1042 10.4 68.0643 11.36 68.0643 12.544C68.0643 13.728 67.1042 14.688 65.9203 14.688H57.4403V19.712H67.7443ZM88.463 19.712C89.647 19.712 90.607 20.672 90.607 21.856C90.607 23.04 89.647 24 88.463 24H76.015C74.831 24 73.871 23.04 73.871 21.856V3.2C73.871 2.016 74.831 1.056 76.015 1.056H88.463C89.647 1.056 90.607 2.016 90.607 3.2C90.607 4.384 89.647 5.344 88.463 5.344H78.159V10.4H86.639C87.823 10.4 88.783 11.36 88.783 12.544C88.783 13.728 87.823 14.688 86.639 14.688H78.159V19.712H88.463ZM114.718 21.76C114.718 21.824 114.718 21.856 114.718 21.888C114.718 21.984 114.686 22.08 114.686 22.144C114.686 22.176 114.686 22.208 114.654 22.24C114.654 22.336 114.622 22.432 114.59 22.496C114.59 22.528 114.558 22.592 114.558 22.624C114.526 22.688 114.494 22.752 114.462 22.784C114.462 22.848 114.43 22.88 114.43 22.912C114.398 22.976 114.334 23.04 114.302 23.072C114.302 23.104 114.27 23.136 114.27 23.136C114.27 23.168 114.238 23.168 114.238 23.168C114.174 23.264 114.11 23.328 114.046 23.392C114.014 23.424 114.014 23.424 113.982 23.456C113.918 23.488 113.854 23.552 113.79 23.616C113.758 23.616 113.726 23.648 113.726 23.68C113.662 23.712 113.598 23.744 113.534 23.776C113.502 23.776 113.47 23.808 113.438 23.808C113.342 23.872 113.278 23.904 113.182 23.904C113.182 23.936 113.15 23.936 113.118 23.936C113.022 23.968 112.926 24 112.83 24C112.798 24 112.766 24 112.734 24C112.638 24 112.574 24 112.478 24C112.446 24 112.414 24 112.35 24C112.286 24 112.19 23.968 112.126 23.968C112.094 23.936 112.062 23.936 111.998 23.936C111.902 23.904 111.774 23.872 111.678 23.808H111.646C111.678 23.808 111.678 23.808 111.678 23.808C111.678 23.808 111.678 23.808 111.646 23.808C111.646 23.808 111.646 23.808 111.614 23.808C111.614 23.776 111.614 23.776 111.582 23.776C111.582 23.776 111.55 23.744 111.518 23.744C111.486 23.744 111.486 23.744 111.486 23.712C111.454 23.712 111.422 23.68 111.39 23.648C111.39 23.648 111.39 23.648 111.358 23.648C111.358 23.648 111.358 23.648 111.358 23.616C111.294 23.616 111.262 23.584 111.23 23.552C111.23 23.52 111.198 23.52 111.198 23.52C111.166 23.488 111.134 23.456 111.07 23.424C111.07 23.392 111.038 23.392 111.038 23.36C111.006 23.328 110.942 23.264 110.91 23.232C110.91 23.232 110.91 23.2 110.878 23.2C110.91 23.2 110.91 23.232 110.91 23.232L98.8778 9.024V21.856C98.8778 23.04 97.9178 24 96.7338 24C95.5498 24 94.5898 23.04 94.5898 21.856V3.296C94.5258 2.144 95.4218 1.024 96.7338 1.024C97.3738 1.024 97.9818 1.344 98.3658 1.824L110.398 16V3.2C110.398 2.016 111.358 1.024 112.574 1.024C113.758 1.024 114.718 2.016 114.718 3.2V21.664C114.718 21.696 114.718 21.728 114.718 21.76Z" fill="#FAF8F4"/>
</svg>
