<svg width="105" height="106" viewBox="0 0 105 106" fill="none" xmlns="http://www.w3.org/2000/svg">
<path d="M98.3719 41.1969C96.6047 39.35 94.7766 37.4469 94.0875 35.7734C93.45 34.2406 93.4125 31.7 93.375 29.2391C93.3047 24.6641 93.2297 19.4797 89.625 15.875C86.0203 12.2703 80.8359 12.1953 76.2609 12.125C73.8 12.0875 71.2594 12.05 69.7266 11.4125C68.0578 10.7234 66.15 8.89531 64.3031 7.12812C61.0687 4.02031 57.3937 0.5 52.5 0.5C47.6063 0.5 43.9359 4.02031 40.6969 7.12812C38.85 8.89531 36.9469 10.7234 35.2734 11.4125C33.75 12.05 31.2 12.0875 28.7391 12.125C24.1641 12.1953 18.9797 12.2703 15.375 15.875C11.7703 19.4797 11.7188 24.6641 11.625 29.2391C11.5875 31.7 11.55 34.2406 10.9125 35.7734C10.2234 37.4422 8.39531 39.35 6.62812 41.1969C3.52031 44.4313 0 48.1063 0 53C0 57.8937 3.52031 61.5641 6.62812 64.8031C8.39531 66.65 10.2234 68.5531 10.9125 70.2266C11.55 71.7594 11.5875 74.3 11.625 76.7609C11.6953 81.3359 11.7703 86.5203 15.375 90.125C18.9797 93.7297 24.1641 93.8047 28.7391 93.875C31.2 93.9125 33.7406 93.95 35.2734 94.5875C36.9422 95.2766 38.85 97.1047 40.6969 98.8719C43.9313 101.98 47.6063 105.5 52.5 105.5C57.3937 105.5 61.0641 101.98 64.3031 98.8719C66.15 97.1047 68.0531 95.2766 69.7266 94.5875C71.2594 93.95 73.8 93.9125 76.2609 93.875C80.8359 93.8047 86.0203 93.7297 89.625 90.125C93.2297 86.5203 93.3047 81.3359 93.375 76.7609C93.4125 74.3 93.45 71.7594 94.0875 70.2266C94.7766 68.5578 96.6047 66.65 98.3719 64.8031C101.48 61.5687 105 57.8937 105 53C105 48.1063 101.48 44.4359 98.3719 41.1969ZM92.9578 59.6141C90.7125 61.9578 88.3875 64.3813 87.1547 67.3578C85.9734 70.2172 85.9219 73.4844 85.875 76.6484C85.8281 79.9297 85.7766 83.3656 84.3188 84.8188C82.8609 86.2719 79.4484 86.3281 76.1484 86.375C72.9844 86.4219 69.7172 86.4734 66.8578 87.6547C63.8813 88.8875 61.4578 91.2125 59.1141 93.4578C56.7703 95.7031 54.375 98 52.5 98C50.625 98 48.2109 95.6937 45.8859 93.4578C43.5609 91.2219 41.1188 88.8875 38.1422 87.6547C35.2828 86.4734 32.0156 86.4219 28.8516 86.375C25.5703 86.3281 22.1344 86.2766 20.6812 84.8188C19.2281 83.3609 19.1719 79.9484 19.125 76.6484C19.0781 73.4844 19.0266 70.2172 17.8453 67.3578C16.6125 64.3813 14.2875 61.9578 12.0422 59.6141C9.79687 57.2703 7.5 54.875 7.5 53C7.5 51.125 9.80625 48.7109 12.0422 46.3859C14.2781 44.0609 16.6125 41.6188 17.8453 38.6422C19.0266 35.7828 19.0781 32.5156 19.125 29.3516C19.1719 26.0703 19.2234 22.6344 20.6812 21.1812C22.1391 19.7281 25.5516 19.6719 28.8516 19.625C32.0156 19.5781 35.2828 19.5266 38.1422 18.3453C41.1188 17.1125 43.5422 14.7875 45.8859 12.5422C48.2297 10.2969 50.625 8 52.5 8C54.375 8 56.7891 10.3062 59.1141 12.5422C61.4391 14.7781 63.8813 17.1125 66.8578 18.3453C69.7172 19.5266 72.9844 19.5781 76.1484 19.625C79.4297 19.6719 82.8656 19.7234 84.3188 21.1812C85.7719 22.6391 85.8281 26.0516 85.875 29.3516C85.9219 32.5156 85.9734 35.7828 87.1547 38.6422C88.3875 41.6188 90.7125 44.0422 92.9578 46.3859C95.2031 48.7297 97.5 51.125 97.5 53C97.5 54.875 95.1937 57.2891 92.9578 59.6141ZM73.9031 39.0969C74.2518 39.4451 74.5284 39.8587 74.7171 40.314C74.9058 40.7692 75.0029 41.2572 75.0029 41.75C75.0029 42.2428 74.9058 42.7308 74.7171 43.186C74.5284 43.6413 74.2518 44.0549 73.9031 44.4031L47.6531 70.6531C47.3049 71.0018 46.8913 71.2784 46.436 71.4671C45.9808 71.6558 45.4928 71.7529 45 71.7529C44.5072 71.7529 44.0192 71.6558 43.564 71.4671C43.1087 71.2784 42.6951 71.0018 42.3469 70.6531L31.0969 59.4031C30.3932 58.6995 29.9979 57.7451 29.9979 56.75C29.9979 55.7549 30.3932 54.8005 31.0969 54.0969C31.8005 53.3932 32.7549 52.9979 33.75 52.9979C34.7451 52.9979 35.6995 53.3932 36.4031 54.0969L45 62.6984L68.5969 39.0969C68.9451 38.7482 69.3587 38.4716 69.814 38.2829C70.2692 38.0942 70.7572 37.9971 71.25 37.9971C71.7428 37.9971 72.2308 38.0942 72.686 38.2829C73.1413 38.4716 73.5549 38.7482 73.9031 39.0969Z" fill="#71AC02"/>
</svg>
